<?xml version="1.0" encoding="utf-8"?>
<svg width="64" height="64" viewBox="0 0 64 64" xmlns="http://www.w3.org/2000/svg">
  <g>
    <path fill="#fff" d="m 34.836674,15.196252 v -3.958053 c 0,-6.8315993 -4.857519,-10.88464561 -11.79248,-10.88464561 -6.934961,0 -11.792479,4.05304631 -11.792479,10.88464561 v 3.958053 H 0.44194174 v 36.117233 c 0,4.100544 3.37166636,7.42135 7.53342906,7.42135 H 38.112035 c 4.162745,0 7.534412,-3.320806 7.534412,-7.42135 V 15.196252 H 34.836674 z M 16.165248,11.238199 c 0,-4.0985638 2.718167,-6.9265926 6.878946,-6.9265926 4.16078,0 6.878947,2.8280288 6.878947,6.9265926 v 3.958053 H 16.165248 v -3.958053 z m 24.567665,38.591017 c 0,1.366517 -1.560537,3.958053 -2.94812,3.958053 H 9.2863014 c -1.3875817,0 -3.9308265,-2.591536 -3.9308265,-3.958053 V 20.143819 H 40.732913 v 29.685397 z"/>
  </g>
</svg>