<svg xmlns="http://www.w3.org/2000/svg" width="50" height="50" viewBox="0 0 50 50" enable-background="new 0 0 50 50">
  <path fill="#FFFFFF" d="M33.683,29.753C36.035,27.473,39,24.542,39,21v-8c0-6.927-7.097-13-14-13S11,6.074,11,13v8 c0,3.539,2.965,6.471,5.315,8.752C6.79,31.241,0,35.1,0,39.597v4.132C0,47.194,2.797,50,6.25,50h37.5c3.453,0,6.25-2.807,6.25-6.271 v-4.115C50,35.118,43.209,31.246,33.683,29.753z M15,20v-8c0-4.642,0.703,1,6,1c5.298,0,13.731-7.076,14-1v8c0,4.642-4.702,9-10,9 C19.703,29,15,24.642,15,20z M46,44c0,1.152-0.851,2-2,2H6c-1.149,0-2-0.848-2-2v-4c0-0.487,1.367-2.463,4.934-3.963 C13.103,34.284,18.959,40,25,40c6.038,0,11.893-5.715,16.063-3.956C44.632,37.549,46,39.511,46,40V44z"/>
</svg>
