<?xml version="1.0" encoding="UTF-8" standalone="no"?>
<svg
   xmlns:dc="http://purl.org/dc/elements/1.1/"
   xmlns:cc="http://creativecommons.org/ns#"
   xmlns:rdf="http://www.w3.org/1999/02/22-rdf-syntax-ns#"
   xmlns:svg="http://www.w3.org/2000/svg"
   xmlns="http://www.w3.org/2000/svg"
   xmlns:sodipodi="http://sodipodi.sourceforge.net/DTD/sodipodi-0.dtd"
   xmlns:inkscape="http://www.inkscape.org/namespaces/inkscape"
   width="64"
   height="64"
   viewBox="0 0 64 64"
   id="svg2"
   version="1.1"
   inkscape:version="0.48.4 r9939"
   sodipodi:docname="cart.svg">
  <metadata
     id="metadata12">
    <rdf:RDF>
      <cc:Work
         rdf:about="">
        <dc:format>image/svg+xml</dc:format>
        <dc:type
           rdf:resource="http://purl.org/dc/dcmitype/StillImage" />
      </cc:Work>
    </rdf:RDF>
  </metadata>
  <defs
     id="defs10" />
  <sodipodi:namedview
     pagecolor="#888888"
     bordercolor="#666666"
     borderopacity="1"
     objecttolerance="10"
     gridtolerance="10"
     guidetolerance="10"
     inkscape:pageopacity="1"
     inkscape:pageshadow="2"
     inkscape:window-width="1855"
     inkscape:window-height="1056"
     id="namedview8"
     showgrid="false"
     inkscape:zoom="3.6875"
     inkscape:cx="32"
     inkscape:cy="32"
     inkscape:window-x="65"
     inkscape:window-y="24"
     inkscape:window-maximized="1"
     inkscape:current-layer="svg2" />
  <g
     id="g4"
     transform="translate(8.9491525,2.440678)">
    <path
       d="m 35.063409,15.263667 v -3.97603 c 0,-6.8626286 -4.914506,-10.93408361 -11.930826,-10.93408361 -7.016321,0 -11.930827,4.07145501 -11.930827,10.93408361 v 3.97603 H 0.26516504 V 51.544943 C 0.26516504,55.664111 3.6763872,59 7.8869747,59 H 38.377196 C 42.588778,59 46,55.664111 46,51.544943 V 15.263667 H 35.063409 z m -18.890475,-3.97603 c 0,-4.1171797 2.750055,-6.9580533 6.959649,-6.9580533 4.209593,0 6.959648,2.8408736 6.959648,6.9580533 v 3.97603 H 16.172934 v -3.97603 z m 24.855888,38.766295 c 0,1.372724 -1.578846,3.97603 -2.982706,3.97603 H 9.2132849 c -1.4038606,0 -3.9769421,-2.603306 -3.9769421,-3.97603 V 20.233705 H 41.028822 v 29.820227 z"
       id="path6"
       inkscape:connector-curvature="0"
       style="fill:#ffffff" />
  </g>
</svg>
