<svg xmlns="http://www.w3.org/2000/svg" width="28" height="25" viewBox="0 0 28 25" enable-background="new 0 0 28 25">
  <path fill="#FFFFFF" d="M24.182,5H20V3c0-2.072-1.346-3-3.455-3h-5.09C9.345,0,8,0.928,8,3v2H3.818C1.709,5,0,6.679,0,8.75v12.5 C0,23.32,1.709,25,3.818,25h20.364C26.291,25,28,23.32,28,21.25V8.75C28,6.679,26.291,5,24.182,5z M20,7v16H8V7H20z M10,3 c0-0.691,0.297-1,1-1h6c0.703,0,1,0.309,1,1v2h-8V3z M2,21V9c0-0.691,1.297-2,2-2h4v16H4C3.297,23,2,21.69,2,21z M26,21 c0,0.69-1.297,2-2,2h-4V7h4c0.703,0,2,1.309,2,2V21z"/>
  <path fill-rule="evenodd" clip-rule="evenodd" fill="#FFFFFF" d="M2 10h24v2H2V10zM2 18h24v2H2V18z"/>
</svg>
