<?xml version="1.0" encoding="UTF-8" standalone="no"?>
<svg
   xmlns:dc="http://purl.org/dc/elements/1.1/"
   xmlns:cc="http://creativecommons.org/ns#"
   xmlns:rdf="http://www.w3.org/1999/02/22-rdf-syntax-ns#"
   xmlns:svg="http://www.w3.org/2000/svg"
   xmlns="http://www.w3.org/2000/svg"
   xmlns:sodipodi="http://sodipodi.sourceforge.net/DTD/sodipodi-0.dtd"
   xmlns:inkscape="http://www.inkscape.org/namespaces/inkscape"
   width="79.026"
   height="68.023"
   viewBox="0 0 79.026 68.023"
   enable-background="new 0 0 79.026 68.023"
   id="svg2"
   version="1.1"
   inkscape:version="0.48.4 r9939"
   sodipodi:docname="like_hover.svg">
  <metadata
     id="metadata14">
    <rdf:RDF>
      <cc:Work
         rdf:about="">
        <dc:format>image/svg+xml</dc:format>
        <dc:type
           rdf:resource="http://purl.org/dc/dcmitype/StillImage" />
      </cc:Work>
    </rdf:RDF>
  </metadata>
  <defs
     id="defs12" />
  <sodipodi:namedview
     pagecolor="#888888"
     bordercolor="#666666"
     borderopacity="1"
     objecttolerance="10"
     gridtolerance="10"
     guidetolerance="10"
     inkscape:pageopacity="1"
     inkscape:pageshadow="2"
     inkscape:window-width="1855"
     inkscape:window-height="1056"
     id="namedview10"
     showgrid="false"
     inkscape:zoom="6.9388292"
     inkscape:cx="35.456291"
     inkscape:cy="43.03278"
     inkscape:window-x="65"
     inkscape:window-y="24"
     inkscape:window-maximized="1"
     inkscape:current-layer="svg2" />
  <g
     id="g4"
     transform="translate(2.3058645,2.3058645)">
    <g
       id="g6">
      <path
         clip-rule="evenodd"
         d="m 22.026,39.523 c 0,-0.477 0.013,-0.951 0.036,-1.422 L 16.473,32.436 8.709,24.567 c -4.288,-4.347 -4.288,-11.395 0,-15.742 4.29,-4.347 11.241,-4.347 15.53,0 l 7.764,7.871 7.766,-7.871 c 4.287,-4.347 11.241,-4.347 15.529,0 0.898,0.911 1.598,1.944 2.119,3.042 2.252,0.559 4.396,1.387 6.401,2.446 C 63.33,10.866 61.797,7.542 59.18,4.891 52.746,-1.63 42.317,-1.63 35.885,4.891 L 32.002,8.826 28.118,4.892 c -6.433,-6.521 -16.862,-6.521 -23.294,0 -6.433,6.52 -6.433,17.09 0,23.61 l 3.882,3.934 14.295,14.488 c -0.632,-2.361 -0.975,-4.84 -0.975,-7.401 z"
         id="path8"
         inkscape:connector-curvature="0"
         style="fill:#ffffff;fill-rule:evenodd" />
    </g>
  </g>
</svg>
