<svg xmlns="http://www.w3.org/2000/svg" width="28" height="28" viewBox="0 0 28 28" enable-background="new 0 0 28 28">
  <path fill="#FFFFFF" d="M4.714,0C2.11,0,0,2.089,0,4.667v18.667C0,25.91,2.11,28,4.714,28C7.318,28,9,25.577,9,23V5 C9,2.423,7.318,0,4.714,0z M6,23c0,0.859-0.418,1.889-1.286,1.889C3.846,24.889,3,23.859,3,23V5c0-0.859,0.846-1.889,1.714-1.889 C5.582,3.111,6,4.141,6,5V23z M23.285,0C20.682,0,19,2.423,19,5v18c0,2.577,1.682,5,4.285,5S28,25.91,28,23.334V4.667 C28,2.089,25.889,0,23.285,0z M25,23c0,0.859-0.847,1.889-1.715,1.889C22.418,24.889,22,23.859,22,23V5 c0-0.859,0.418-1.889,1.285-1.889C24.153,3.111,25,4.141,25,5V23z"/>
</svg>
