<?xml version="1.0" encoding="UTF-8" standalone="no"?>
<svg
   xmlns:dc="http://purl.org/dc/elements/1.1/"
   xmlns:cc="http://creativecommons.org/ns#"
   xmlns:rdf="http://www.w3.org/1999/02/22-rdf-syntax-ns#"
   xmlns:svg="http://www.w3.org/2000/svg"
   xmlns="http://www.w3.org/2000/svg"
   xmlns:sodipodi="http://sodipodi.sourceforge.net/DTD/sodipodi-0.dtd"
   xmlns:inkscape="http://www.inkscape.org/namespaces/inkscape"
   width="64"
   height="64"
   viewBox="0 0 64 64"
   enable-background="new 0 0 52 52"
   id="svg2"
   version="1.1"
   inkscape:version="0.48.4 r9939"
   sodipodi:docname="portfolio_hover.svg">
  <metadata
     id="metadata10">
    <rdf:RDF>
      <cc:Work
         rdf:about="">
        <dc:format>image/svg+xml</dc:format>
        <dc:type
           rdf:resource="http://purl.org/dc/dcmitype/StillImage" />
      </cc:Work>
    </rdf:RDF>
  </metadata>
  <defs
     id="defs8" />
  <sodipodi:namedview
     pagecolor="#888888"
     bordercolor="#666666"
     borderopacity="1"
     objecttolerance="10"
     gridtolerance="10"
     guidetolerance="10"
     inkscape:pageopacity="1"
     inkscape:pageshadow="2"
     inkscape:window-width="1855"
     inkscape:window-height="1056"
     id="namedview6"
     showgrid="false"
     inkscape:zoom="12.836708"
     inkscape:cx="31.134558"
     inkscape:cy="29.230752"
     inkscape:window-x="65"
     inkscape:window-y="24"
     inkscape:window-maximized="1"
     inkscape:current-layer="svg2" />
  <path
     d="M 17.409694,0.3926627 H 7.6838728 c -4.0301367,0 -7.29436483,3.2722736 -7.29436483,7.3123424 v 9.7497889 c 0,4.04007 3.26422813,7.312343 7.29436483,7.312343 h 9.7258212 c 4.02892,0 7.294363,-3.272273 7.294363,-7.312343 V 7.7050051 c 0,-4.0400688 -3.265443,-7.3123424 -7.294363,-7.3123424 z m 2.431453,17.0621313 c 0,1.346689 -1.089292,2.437448 -2.431453,2.437448 H 7.6838728 c -1.3433787,0 -2.4314549,-1.091976 -2.4314549,-2.437448 V 7.7050051 c 0,-1.34669 1.0880762,-2.4374483 2.4314549,-2.4374483 h 9.7258212 c 1.342161,0 2.431453,1.0907583 2.431453,2.4374483 V 17.454794 z M 56.312973,0.3926627 h -9.72582 c -4.030136,0 -7.294366,3.2722736 -7.294366,7.3123424 v 9.7497889 c 0,4.04007 3.26423,7.312343 7.294366,7.312343 h 9.72582 c 4.028919,0 7.294365,-3.272273 7.294365,-7.312343 V 7.7050051 c 0,-4.0400688 -3.265446,-7.3123424 -7.294365,-7.3123424 z m 2.431454,17.0621313 c 0,1.346689 -1.08929,2.437448 -2.431454,2.437448 h -9.72582 c -1.34338,0 -2.431454,-1.091976 -2.431454,-2.437448 V 7.7050051 c 0,-1.34669 1.088074,-2.4374483 2.431454,-2.4374483 h 9.72582 c 1.342164,0 2.431454,1.0907583 2.431454,2.4374483 v 9.7497889 z m -2.431454,21.937027 h -9.72582 c -4.030136,0 -7.294366,3.273492 -7.294366,7.312343 v 9.749788 c 0,4.038852 3.26423,7.312343 7.294366,7.312343 h 9.72582 c 4.028919,0 7.294365,-3.273491 7.294365,-7.312343 v -9.749788 c 0,-4.038851 -3.265446,-7.312343 -7.294365,-7.312343 z m 2.431454,17.062131 c 0,1.345472 -1.08929,2.437449 -2.431454,2.437449 h -9.72582 c -1.34338,0 -2.431454,-1.091977 -2.431454,-2.437449 v -9.749788 c 0,-1.34669 1.088074,-2.437448 2.431454,-2.437448 h 9.72582 c 1.342164,0 2.431454,1.090758 2.431454,2.437448 v 9.749788 z M 17.409694,39.391821 H 7.6838728 c -4.0301367,0 -7.29436483,3.273492 -7.29436483,7.312343 v 9.749788 c 0,4.038852 3.26422813,7.312343 7.29436483,7.312343 h 9.7258212 c 4.02892,0 7.294363,-3.273491 7.294363,-7.312343 v -9.749788 c 0,-4.038851 -3.265443,-7.312343 -7.294363,-7.312343 z m 2.431453,17.062131 c 0,1.345472 -1.089292,2.437449 -2.431453,2.437449 H 7.6838728 c -1.3433787,0 -2.4314549,-1.091977 -2.4314549,-2.437449 v -9.749788 c 0,-1.34669 1.0880762,-2.437448 2.4314549,-2.437448 h 9.7258212 c 1.342161,0 2.431453,1.090758 2.431453,2.437448 v 9.749788 z"
     id="path4"
     inkscape:connector-curvature="0"
     style="fill:#ffffff" />
</svg>
